<?xml version="1.0" encoding="utf-8"?>
<svg version="1.1" id="Ebene_5" xmlns="http://www.w3.org/2000/svg" xmlns:xlink="http://www.w3.org/1999/xlink" x="0px" y="0px"
	 width="304px" height="167.6px" viewBox="0 0 304 167.6" style="enable-background:new 0 0 304 167.6;" xml:space="preserve">
<style type="text/css">
	.st0{fill:none;stroke:#fff;stroke-width:9.6;stroke-linecap:round;stroke-linejoin:round;stroke-miterlimit:10;}
	.st1{fill:#fff;}
</style>
<path class="st0" d="M24,129.1c21.6,0,40.5-23.4,61.3-60.4C101.9,39,114.8,22.9,124.2,19"/>
<path class="st0" d="M138.6,129.1c21.6,0,40.5-23.4,61.3-60.4C216.6,39,229.4,22.9,238.9,19"/>
<path class="st0" d="M124.5,58.2c0,0-32.9,38.1-16.9,38.1S147,65.1,147,65.1"/>
<path class="st0" d="M151,58.2l-23.3,38.1c0,0,19.8-38.1,43.4-38.1c18.9,0-29.1,38.1-10.4,38.1c22.3,0,40.6-29.9,40.6-29.9"/>
<path class="st0" d="M241.5,84.8c-7.5,9.5-19.3,15.5-25.4,10.7c-6.1-4.8-3-17.7,4.5-27.2c7.5-9.6,19.3-15.5,25.4-10.7
	C252.1,62.5,249,75.3,241.5,84.8z"/>
<line class="st0" x1="19" y1="58.2" x2="109.2" y2="58.2"/>
<line class="st0" x1="187.1" y1="58.2" x2="214.2" y2="58.2"/>
<line class="st0" x1="132.2" y1="41.6" x2="132.2" y2="41.6"/>
<line class="st0" x1="259.8" y1="58.2" x2="285" y2="58.2"/>
<g>
	<path class="st1" d="M19.7,145.2h3.1c0.5,0,1.1,0.1,1.5,0.3c0.5,0.2,0.9,0.5,1.2,0.9c0.4,0.4,0.6,0.8,0.8,1.3
		c0.2,0.5,0.3,1,0.3,1.5c0,0.5-0.1,1-0.3,1.5c-0.2,0.5-0.5,0.9-0.8,1.3c-0.4,0.4-0.8,0.7-1.2,0.9s-1,0.3-1.5,0.3h-3.1V145.2z
		 M21.8,151.4h0.5c0.4,0,0.7-0.1,1-0.2c0.3-0.1,0.5-0.3,0.7-0.5c0.2-0.2,0.3-0.4,0.4-0.7s0.2-0.6,0.2-0.9c0-0.3-0.1-0.6-0.2-0.9
		s-0.3-0.5-0.4-0.7c-0.2-0.2-0.4-0.4-0.7-0.5c-0.3-0.1-0.6-0.2-1-0.2h-0.5V151.4z"/>
	<path class="st1" d="M32.6,147h-2.5v1.3h2.3v1.8h-2.3v1.4h2.5v1.8h-4.5v-8h4.5V147z"/>
	<path class="st1" d="M36.3,145.2v4.3c0,0.2,0,0.5,0,0.7c0,0.2,0.1,0.5,0.2,0.7c0.1,0.2,0.2,0.4,0.4,0.5s0.5,0.2,0.8,0.2
		c0.3,0,0.6-0.1,0.8-0.2c0.2-0.1,0.3-0.3,0.4-0.5c0.1-0.2,0.1-0.4,0.2-0.7c0-0.2,0-0.5,0-0.7v-4.3h2.1v4.6c0,1.2-0.3,2.1-0.9,2.7
		c-0.6,0.6-1.4,0.9-2.6,0.9c-1.2,0-2-0.3-2.6-0.9c-0.6-0.6-0.9-1.5-0.9-2.7v-4.6H36.3z"/>
	<path class="st1" d="M46,147v6.2h-2.1V147h-1.7v-1.8h5.5v1.8H46z"/>
	<path class="st1" d="M53,147.3c-0.2-0.2-0.5-0.3-0.7-0.4c-0.2-0.1-0.4-0.1-0.7-0.1c-0.3,0-0.5,0.1-0.7,0.2
		c-0.2,0.1-0.3,0.3-0.3,0.5c0,0.1,0,0.3,0.1,0.3s0.2,0.2,0.3,0.2c0.1,0.1,0.3,0.1,0.5,0.2c0.2,0,0.3,0.1,0.5,0.2
		c0.7,0.2,1.2,0.5,1.5,0.9c0.3,0.4,0.5,0.9,0.5,1.5c0,0.4-0.1,0.8-0.2,1.1c-0.1,0.3-0.3,0.6-0.6,0.8c-0.3,0.2-0.6,0.4-1,0.5
		s-0.8,0.2-1.3,0.2c-1,0-1.9-0.3-2.8-0.9l0.9-1.7c0.3,0.3,0.6,0.5,0.9,0.6s0.6,0.2,0.9,0.2c0.3,0,0.6-0.1,0.8-0.2
		c0.2-0.2,0.2-0.3,0.2-0.5c0-0.1,0-0.2-0.1-0.3c0-0.1-0.1-0.2-0.2-0.2c-0.1-0.1-0.2-0.1-0.4-0.2c-0.2-0.1-0.4-0.1-0.6-0.2
		c-0.3-0.1-0.5-0.2-0.8-0.3c-0.3-0.1-0.5-0.2-0.7-0.4s-0.4-0.4-0.5-0.6c-0.1-0.3-0.2-0.6-0.2-1c0-0.4,0.1-0.8,0.2-1.1
		c0.1-0.3,0.3-0.6,0.5-0.8c0.2-0.2,0.5-0.4,0.9-0.5c0.3-0.1,0.7-0.2,1.1-0.2c0.4,0,0.8,0.1,1.2,0.2c0.4,0.1,0.8,0.3,1.2,0.5
		L53,147.3z"/>
	<path class="st1" d="M61.2,147.9c-0.5-0.6-1.1-0.9-1.8-0.9c-0.3,0-0.6,0.1-0.9,0.2c-0.3,0.1-0.5,0.3-0.7,0.5
		c-0.2,0.2-0.3,0.4-0.4,0.7c-0.1,0.3-0.2,0.6-0.2,0.9c0,0.3,0.1,0.6,0.2,0.9c0.1,0.3,0.3,0.5,0.5,0.7c0.2,0.2,0.4,0.4,0.7,0.5
		c0.3,0.1,0.5,0.2,0.8,0.2c0.7,0,1.3-0.3,1.8-0.8v2.4l-0.2,0.1c-0.3,0.1-0.6,0.2-0.9,0.2c-0.3,0.1-0.5,0.1-0.8,0.1
		c-0.5,0-1.1-0.1-1.6-0.3s-0.9-0.5-1.3-0.9c-0.4-0.4-0.7-0.8-0.9-1.3c-0.2-0.5-0.3-1.1-0.3-1.7c0-0.6,0.1-1.2,0.3-1.7
		c0.2-0.5,0.5-1,0.9-1.3c0.4-0.4,0.8-0.7,1.3-0.9c0.5-0.2,1-0.3,1.6-0.3c0.3,0,0.6,0,0.9,0.1s0.6,0.2,1,0.3V147.9z"/>
	<path class="st1" d="M64.9,148.3h3v-3.1H70v8h-2.1v-3.3h-3v3.3h-2.1v-8h2.1V148.3z"/>
	<path class="st1" d="M73.8,145.2v6.2h2.5v1.8h-4.6v-8H73.8z"/>
	<path class="st1" d="M82.7,151.8h-3l-0.5,1.4H77l3-8h2.3l3,8h-2.2L82.7,151.8z M82.1,150.2l-0.9-2.7l-0.9,2.7H82.1z"/>
	<path class="st1" d="M86.3,153.2v-8h2.1l3.8,4.9v-4.9h2.1v8h-2.1l-3.8-4.9v4.9H86.3z"/>
	<path class="st1" d="M96.1,145.2h3.1c0.5,0,1.1,0.1,1.5,0.3c0.5,0.2,0.9,0.5,1.2,0.9c0.4,0.4,0.6,0.8,0.8,1.3
		c0.2,0.5,0.3,1,0.3,1.5c0,0.5-0.1,1-0.3,1.5c-0.2,0.5-0.5,0.9-0.8,1.3c-0.4,0.4-0.8,0.7-1.2,0.9s-1,0.3-1.5,0.3h-3.1V145.2z
		 M98.2,151.4h0.5c0.4,0,0.7-0.1,1-0.2c0.3-0.1,0.5-0.3,0.7-0.5c0.2-0.2,0.3-0.4,0.4-0.7s0.2-0.6,0.2-0.9c0-0.3-0.1-0.6-0.2-0.9
		s-0.3-0.5-0.4-0.7c-0.2-0.2-0.4-0.4-0.7-0.5c-0.3-0.1-0.6-0.2-1-0.2h-0.5V151.4z"/>
	<path class="st1" d="M108.7,147.3c-0.2-0.2-0.5-0.3-0.7-0.4c-0.2-0.1-0.4-0.1-0.7-0.1c-0.3,0-0.5,0.1-0.7,0.2
		c-0.2,0.1-0.3,0.3-0.3,0.5c0,0.1,0,0.3,0.1,0.3s0.2,0.2,0.3,0.2c0.1,0.1,0.3,0.1,0.5,0.2c0.2,0,0.3,0.1,0.5,0.2
		c0.7,0.2,1.2,0.5,1.5,0.9c0.3,0.4,0.5,0.9,0.5,1.5c0,0.4-0.1,0.8-0.2,1.1c-0.1,0.3-0.3,0.6-0.6,0.8c-0.3,0.2-0.6,0.4-1,0.5
		s-0.8,0.2-1.3,0.2c-1,0-1.9-0.3-2.8-0.9l0.9-1.7c0.3,0.3,0.6,0.5,0.9,0.6s0.6,0.2,0.9,0.2c0.3,0,0.6-0.1,0.8-0.2
		c0.2-0.2,0.2-0.3,0.2-0.5c0-0.1,0-0.2-0.1-0.3c0-0.1-0.1-0.2-0.2-0.2c-0.1-0.1-0.2-0.1-0.4-0.2c-0.2-0.1-0.4-0.1-0.6-0.2
		c-0.3-0.1-0.5-0.2-0.8-0.3c-0.3-0.1-0.5-0.2-0.7-0.4s-0.4-0.4-0.5-0.6c-0.1-0.3-0.2-0.6-0.2-1c0-0.4,0.1-0.8,0.2-1.1
		c0.1-0.3,0.3-0.6,0.5-0.8c0.2-0.2,0.5-0.4,0.9-0.5c0.3-0.1,0.7-0.2,1.1-0.2c0.4,0,0.8,0.1,1.2,0.2c0.4,0.1,0.8,0.3,1.2,0.5
		L108.7,147.3z"/>
	<path class="st1" d="M116.8,153.2h-2.1v-8h3.3c0.9,0,1.6,0.2,2.1,0.7c0.5,0.5,0.7,1.1,0.7,2s-0.2,1.5-0.7,2
		c-0.5,0.5-1.2,0.7-2.1,0.7h-1.2V153.2z M116.8,148.9h0.7c0.8,0,1.1-0.3,1.1-1c0-0.7-0.4-1-1.1-1h-0.7V148.9z"/>
	<path class="st1" d="M128.5,153.2H126l-2-3.1v3.1h-2.1v-8h3.2c0.4,0,0.8,0.1,1.2,0.2c0.3,0.1,0.6,0.3,0.8,0.5
		c0.2,0.2,0.4,0.5,0.5,0.8c0.1,0.3,0.2,0.6,0.2,1c0,0.6-0.1,1.1-0.4,1.5c-0.3,0.4-0.7,0.6-1.3,0.8L128.5,153.2z M124,148.8h0.4
		c0.4,0,0.7-0.1,0.9-0.3s0.3-0.4,0.3-0.7s-0.1-0.6-0.3-0.7s-0.5-0.3-0.9-0.3H124V148.8z"/>
	<path class="st1" d="M129,149.2c0-0.6,0.1-1.1,0.3-1.7c0.2-0.5,0.5-1,0.9-1.3c0.4-0.4,0.9-0.7,1.4-0.9c0.5-0.2,1.1-0.3,1.8-0.3
		c0.6,0,1.2,0.1,1.8,0.3s1,0.5,1.4,0.9c0.4,0.4,0.7,0.8,0.9,1.3c0.2,0.5,0.3,1.1,0.3,1.7s-0.1,1.1-0.3,1.7c-0.2,0.5-0.5,1-0.9,1.3
		c-0.4,0.4-0.9,0.7-1.4,0.9c-0.5,0.2-1.1,0.3-1.8,0.3c-0.6,0-1.2-0.1-1.8-0.3c-0.5-0.2-1-0.5-1.4-0.9c-0.4-0.4-0.7-0.8-0.9-1.3
		C129.1,150.3,129,149.8,129,149.2z M131.1,149.2c0,0.3,0.1,0.6,0.2,0.9s0.3,0.5,0.5,0.7c0.2,0.2,0.4,0.4,0.7,0.5s0.6,0.2,0.9,0.2
		c0.3,0,0.6-0.1,0.9-0.2s0.5-0.3,0.7-0.5c0.2-0.2,0.4-0.4,0.5-0.7s0.2-0.6,0.2-0.9c0-0.3-0.1-0.6-0.2-0.9s-0.3-0.5-0.5-0.7
		c-0.2-0.2-0.4-0.4-0.7-0.5c-0.3-0.1-0.6-0.2-0.9-0.2c-0.3,0-0.6,0.1-0.9,0.2c-0.3,0.1-0.5,0.3-0.7,0.5c-0.2,0.2-0.4,0.4-0.5,0.7
		S131.1,148.9,131.1,149.2z"/>
	<path class="st1" d="M143.8,147h-2.5v1.3h2.3v1.8h-2.3v3.1h-2.1v-8h4.6V147z"/>
	<path class="st1" d="M147.2,145.2v8h-2.1v-8H147.2z"/>
	<path class="st1" d="M152,147v6.2h-2.1V147h-1.7v-1.8h5.5v1.8H152z"/>
	<path class="st1" d="M159.1,151.8h-3l-0.5,1.4h-2.2l3-8h2.3l3,8h-2.2L159.1,151.8z M158.5,150.2l-0.9-2.7l-0.9,2.7H158.5z"/>
	<path class="st1" d="M162.8,145.2h3.1c0.7,0,1.3,0.2,1.7,0.5c0.4,0.4,0.6,0.9,0.6,1.5c0,0.4-0.1,0.7-0.2,1
		c-0.1,0.3-0.4,0.5-0.7,0.7c0.3,0.1,0.5,0.1,0.8,0.3c0.2,0.1,0.4,0.3,0.5,0.4c0.1,0.2,0.2,0.4,0.3,0.6c0.1,0.2,0.1,0.4,0.1,0.7
		c0,0.4-0.1,0.7-0.2,1s-0.3,0.5-0.5,0.7s-0.5,0.3-0.9,0.4s-0.7,0.1-1.1,0.1h-3.3V145.2z M164.8,148.3h0.4c0.6,0,1-0.3,1-0.8
		c0-0.5-0.3-0.8-1-0.8h-0.4V148.3z M164.8,151.6h0.5c0.5,0,0.9-0.1,1.1-0.2c0.2-0.1,0.3-0.3,0.3-0.6c0-0.3-0.1-0.5-0.3-0.6
		c-0.2-0.1-0.6-0.2-1.1-0.2h-0.5V151.6z"/>
	<path class="st1" d="M174.7,147h-2.5v1.3h2.3v1.8h-2.3v1.4h2.5v1.8h-4.5v-8h4.5V147z"/>
	<path class="st1" d="M178.5,145.2v6.2h2.5v1.8h-4.6v-8H178.5z"/>
	<path class="st1" d="M186.6,147.3c-0.2-0.2-0.5-0.3-0.7-0.4c-0.2-0.1-0.4-0.1-0.7-0.1c-0.3,0-0.5,0.1-0.7,0.2
		c-0.2,0.1-0.3,0.3-0.3,0.5c0,0.1,0,0.3,0.1,0.3s0.2,0.2,0.3,0.2c0.1,0.1,0.3,0.1,0.5,0.2c0.2,0,0.3,0.1,0.5,0.2
		c0.7,0.2,1.2,0.5,1.5,0.9c0.3,0.4,0.5,0.9,0.5,1.5c0,0.4-0.1,0.8-0.2,1.1c-0.1,0.3-0.3,0.6-0.6,0.8c-0.3,0.2-0.6,0.4-1,0.5
		s-0.8,0.2-1.3,0.2c-1,0-1.9-0.3-2.8-0.9l0.9-1.7c0.3,0.3,0.6,0.5,0.9,0.6s0.6,0.2,0.9,0.2c0.3,0,0.6-0.1,0.8-0.2
		c0.2-0.2,0.2-0.3,0.2-0.5c0-0.1,0-0.2-0.1-0.3c0-0.1-0.1-0.2-0.2-0.2c-0.1-0.1-0.2-0.1-0.4-0.2c-0.2-0.1-0.4-0.1-0.6-0.2
		c-0.3-0.1-0.5-0.2-0.8-0.3c-0.3-0.1-0.5-0.2-0.7-0.4s-0.4-0.4-0.5-0.6c-0.1-0.3-0.2-0.6-0.2-1c0-0.4,0.1-0.8,0.2-1.1
		c0.1-0.3,0.3-0.6,0.5-0.8c0.2-0.2,0.5-0.4,0.9-0.5c0.3-0.1,0.7-0.2,1.1-0.2c0.4,0,0.8,0.1,1.2,0.2c0.4,0.1,0.8,0.3,1.2,0.5
		L186.6,147.3z"/>
	<path class="st1" d="M192.2,147v6.2h-2.1V147h-1.7v-1.8h5.5v1.8H192.2z"/>
	<path class="st1" d="M199.4,147h-2.5v1.3h2.3v1.8h-2.3v1.4h2.5v1.8h-4.5v-8h4.5V147z"/>
	<path class="st1" d="M207.7,153.2h-2.6l-2-3.1v3.1h-2.1v-8h3.2c0.4,0,0.8,0.1,1.2,0.2c0.3,0.1,0.6,0.3,0.8,0.5
		c0.2,0.2,0.4,0.5,0.5,0.8s0.2,0.6,0.2,1c0,0.6-0.1,1.1-0.4,1.5c-0.3,0.4-0.7,0.6-1.3,0.8L207.7,153.2z M203.2,148.8h0.4
		c0.4,0,0.7-0.1,0.9-0.3c0.2-0.2,0.3-0.4,0.3-0.7s-0.1-0.6-0.3-0.7c-0.2-0.2-0.5-0.3-0.9-0.3h-0.4V148.8z"/>
	<path class="st1" d="M212.2,153.2v-8h2.1l3.8,4.9v-4.9h2.1v8h-2.1l-3.8-4.9v4.9H212.2z"/>
	<path class="st1" d="M226.5,147H224v1.3h2.3v1.8H224v1.4h2.5v1.8h-4.5v-8h4.5V147z"/>
	<path class="st1" d="M229.5,145.2l1.4,5.1l1.7-5.1h1.6l1.7,5.1l1.4-5.1h2.2l-2.4,8h-2.1l-1.6-4.6l-1.6,4.6h-2.1l-2.4-8H229.5z"/>
	<path class="st1" d="M244.5,147.3c-0.2-0.2-0.5-0.3-0.7-0.4s-0.4-0.1-0.7-0.1c-0.3,0-0.5,0.1-0.7,0.2c-0.2,0.1-0.3,0.3-0.3,0.5
		c0,0.1,0,0.3,0.1,0.3c0.1,0.1,0.2,0.2,0.3,0.2c0.1,0.1,0.3,0.1,0.5,0.2c0.2,0,0.3,0.1,0.5,0.2c0.7,0.2,1.2,0.5,1.5,0.9
		c0.3,0.4,0.5,0.9,0.5,1.5c0,0.4-0.1,0.8-0.2,1.1c-0.1,0.3-0.3,0.6-0.6,0.8c-0.3,0.2-0.6,0.4-1,0.5c-0.4,0.1-0.8,0.2-1.3,0.2
		c-1,0-1.9-0.3-2.8-0.9l0.9-1.7c0.3,0.3,0.6,0.5,0.9,0.6s0.6,0.2,0.9,0.2c0.3,0,0.6-0.1,0.8-0.2c0.2-0.2,0.2-0.3,0.2-0.5
		c0-0.1,0-0.2-0.1-0.3s-0.1-0.2-0.2-0.2c-0.1-0.1-0.2-0.1-0.4-0.2s-0.3-0.1-0.6-0.2c-0.3-0.1-0.5-0.2-0.8-0.3s-0.5-0.2-0.7-0.4
		c-0.2-0.2-0.4-0.4-0.5-0.6c-0.1-0.3-0.2-0.6-0.2-1c0-0.4,0.1-0.8,0.2-1.1c0.1-0.3,0.3-0.6,0.5-0.8c0.2-0.2,0.5-0.4,0.9-0.5
		c0.3-0.1,0.7-0.2,1.1-0.2c0.4,0,0.8,0.1,1.2,0.2c0.4,0.1,0.8,0.3,1.2,0.5L244.5,147.3z"/>
	<path class="st1" d="M249.1,145.2v6.2h2.5v1.8h-4.6v-8H249.1z"/>
	<path class="st1" d="M257.2,147h-2.5v1.3h2.3v1.8h-2.3v1.4h2.5v1.8h-4.5v-8h4.5V147z"/>
	<path class="st1" d="M261.9,147v6.2h-2.1V147h-1.7v-1.8h5.5v1.8H261.9z"/>
	<path class="st1" d="M268,147v6.2h-2.1V147h-1.7v-1.8h5.5v1.8H268z"/>
	<path class="st1" d="M275.2,147h-2.5v1.3h2.3v1.8h-2.3v1.4h2.5v1.8h-4.5v-8h4.5V147z"/>
	<path class="st1" d="M283.5,153.2h-2.6l-2-3.1v3.1h-2.1v-8h3.2c0.4,0,0.8,0.1,1.2,0.2c0.3,0.1,0.6,0.3,0.8,0.5
		c0.2,0.2,0.4,0.5,0.5,0.8s0.2,0.6,0.2,1c0,0.6-0.1,1.1-0.4,1.5c-0.3,0.4-0.7,0.6-1.3,0.8L283.5,153.2z M279,148.8h0.4
		c0.4,0,0.7-0.1,0.9-0.3c0.2-0.2,0.3-0.4,0.3-0.7s-0.1-0.6-0.3-0.7c-0.2-0.2-0.5-0.3-0.9-0.3H279V148.8z"/>
</g>
</svg>
