<?xml version="1.0" encoding="UTF-8" standalone="no"?>
<!DOCTYPE svg PUBLIC "-//W3C//DTD SVG 1.1//EN" "http://www.w3.org/Graphics/SVG/1.1/DTD/svg11.dtd">
<svg width="100%" height="100%" viewBox="0 0 304 168" version="1.1" xmlns="http://www.w3.org/2000/svg" xmlns:xlink="http://www.w3.org/1999/xlink" xml:space="preserve" xmlns:serif="http://www.serif.com/" style="fill-rule:evenodd;clip-rule:evenodd;stroke-linecap:round;stroke-linejoin:round;stroke-miterlimit:10;">
    <path d="M24,129.1C45.6,129.1 64.5,105.7 85.3,68.7C101.9,39 114.8,22.9 124.2,19" style="fill:none;fill-rule:nonzero;stroke:#fff;stroke-width:9.6px;"/>
    <path d="M138.6,129.1C160.2,129.1 179.1,105.7 199.9,68.7C216.6,39 229.4,22.9 238.9,19" style="fill:none;fill-rule:nonzero;stroke:#fff;stroke-width:9.6px;"/>
    <path d="M124.5,58.2C124.5,58.2 91.6,96.3 107.6,96.3C123.6,96.3 147,65.1 147,65.1" style="fill:none;fill-rule:nonzero;stroke:#fff;stroke-width:9.6px;"/>
    <path d="M151,58.2L127.7,96.3C127.7,96.3 147.5,58.2 171.1,58.2C190,58.2 142,96.3 160.7,96.3C183,96.3 201.3,66.4 201.3,66.4" style="fill:none;fill-rule:nonzero;stroke:#fff;stroke-width:9.6px;"/>
    <path d="M241.5,84.8C234,94.3 222.2,100.3 216.1,95.5C210,90.7 213.1,77.8 220.6,68.3C228.1,58.7 239.9,52.8 246,57.6C252.1,62.5 249,75.3 241.5,84.8Z" style="fill:none;fill-rule:nonzero;stroke:#fff;stroke-width:9.6px;"/>
    <path d="M19,58.2L109.2,58.2" style="fill:none;fill-rule:nonzero;stroke:#fff;stroke-width:9.6px;"/>
    <path d="M187.1,58.2L214.2,58.2" style="fill:none;fill-rule:nonzero;stroke:#fff;stroke-width:9.6px;"/>
    <path d="M132.2,41.6" style="fill:none;fill-rule:nonzero;stroke:#fff;stroke-width:9.6px;"/>
    <path d="M259.8,58.2L285,58.2" style="fill:none;fill-rule:nonzero;stroke:#fff;stroke-width:9.6px;"/>
</svg>
